<mxfile host="65bd71144e" pages="2">
    <diagram name="MCD" id="vf3dNvlJdAmsOAHzw1FQ">
        <mxGraphModel dx="1503" dy="400" grid="1" gridSize="10" guides="1" tooltips="1" connect="1" arrows="1" fold="1" page="0" pageScale="1" pageWidth="827" pageHeight="1169" math="0" shadow="0">
            <root>
                <mxCell id="0"/>
                <mxCell id="1" parent="0"/>
                <mxCell id="xNxbDZh3wqqcQROVwkGP-92" style="edgeStyle=orthogonalEdgeStyle;rounded=0;orthogonalLoop=1;jettySize=auto;html=1;strokeColor=#028090;fontColor=#E4FDE1;fillColor=#F45B69;endArrow=none;endFill=0;" parent="1" source="xNxbDZh3wqqcQROVwkGP-160" target="xNxbDZh3wqqcQROVwkGP-131" edge="1">
                    <mxGeometry relative="1" as="geometry"/>
                </mxCell>
                <mxCell id="xNxbDZh3wqqcQROVwkGP-93" style="edgeStyle=orthogonalEdgeStyle;rounded=0;orthogonalLoop=1;jettySize=auto;html=1;strokeColor=#028090;fontColor=#E4FDE1;fillColor=#F45B69;" parent="1" source="xNxbDZh3wqqcQROVwkGP-94" target="xNxbDZh3wqqcQROVwkGP-164" edge="1">
                    <mxGeometry relative="1" as="geometry"/>
                </mxCell>
                <mxCell id="xNxbDZh3wqqcQROVwkGP-94" value="Utilisateur" style="swimlane;fontStyle=0;childLayout=stackLayout;horizontal=1;startSize=30;horizontalStack=0;resizeParent=1;resizeParentMax=0;resizeLast=0;collapsible=1;marginBottom=0;whiteSpace=wrap;html=1;fillColor=#F45B69;strokeColor=#028090;labelBackgroundColor=none;fontColor=#E4FDE1;" parent="1" vertex="1">
                    <mxGeometry x="110" y="50" width="140" height="180" as="geometry"/>
                </mxCell>
                <mxCell id="xNxbDZh3wqqcQROVwkGP-95" value="id" style="text;strokeColor=none;fillColor=none;align=left;verticalAlign=middle;spacingLeft=4;spacingRight=4;overflow=hidden;points=[[0,0.5],[1,0.5]];portConstraint=eastwest;rotatable=0;whiteSpace=wrap;html=1;labelBackgroundColor=none;fontColor=#E4FDE1;" parent="xNxbDZh3wqqcQROVwkGP-94" vertex="1">
                    <mxGeometry y="30" width="140" height="30" as="geometry"/>
                </mxCell>
                <mxCell id="xNxbDZh3wqqcQROVwkGP-96" value="nom" style="text;strokeColor=none;fillColor=none;align=left;verticalAlign=middle;spacingLeft=4;spacingRight=4;overflow=hidden;points=[[0,0.5],[1,0.5]];portConstraint=eastwest;rotatable=0;whiteSpace=wrap;html=1;labelBackgroundColor=none;fontColor=#E4FDE1;" parent="xNxbDZh3wqqcQROVwkGP-94" vertex="1">
                    <mxGeometry y="60" width="140" height="30" as="geometry"/>
                </mxCell>
                <mxCell id="xNxbDZh3wqqcQROVwkGP-97" value="prenom" style="text;strokeColor=none;fillColor=none;align=left;verticalAlign=middle;spacingLeft=4;spacingRight=4;overflow=hidden;points=[[0,0.5],[1,0.5]];portConstraint=eastwest;rotatable=0;whiteSpace=wrap;html=1;labelBackgroundColor=none;fontColor=#E4FDE1;" parent="xNxbDZh3wqqcQROVwkGP-94" vertex="1">
                    <mxGeometry y="90" width="140" height="30" as="geometry"/>
                </mxCell>
                <mxCell id="xNxbDZh3wqqcQROVwkGP-98" value="email" style="text;strokeColor=none;fillColor=none;align=left;verticalAlign=middle;spacingLeft=4;spacingRight=4;overflow=hidden;points=[[0,0.5],[1,0.5]];portConstraint=eastwest;rotatable=0;whiteSpace=wrap;html=1;labelBackgroundColor=none;fontColor=#E4FDE1;" parent="xNxbDZh3wqqcQROVwkGP-94" vertex="1">
                    <mxGeometry y="120" width="140" height="30" as="geometry"/>
                </mxCell>
                <mxCell id="xNxbDZh3wqqcQROVwkGP-99" value="MDP" style="text;strokeColor=none;fillColor=none;align=left;verticalAlign=middle;spacingLeft=4;spacingRight=4;overflow=hidden;points=[[0,0.5],[1,0.5]];portConstraint=eastwest;rotatable=0;whiteSpace=wrap;html=1;labelBackgroundColor=none;fontColor=#E4FDE1;" parent="xNxbDZh3wqqcQROVwkGP-94" vertex="1">
                    <mxGeometry y="150" width="140" height="30" as="geometry"/>
                </mxCell>
                <mxCell id="xNxbDZh3wqqcQROVwkGP-100" style="edgeStyle=orthogonalEdgeStyle;rounded=0;orthogonalLoop=1;jettySize=auto;html=1;strokeColor=#028090;fontColor=#E4FDE1;fillColor=#F45B69;endArrow=none;endFill=0;" parent="1" source="xNxbDZh3wqqcQROVwkGP-103" target="xNxbDZh3wqqcQROVwkGP-159" edge="1">
                    <mxGeometry relative="1" as="geometry">
                        <Array as="points">
                            <mxPoint x="380" y="490"/>
                        </Array>
                    </mxGeometry>
                </mxCell>
                <mxCell id="xNxbDZh3wqqcQROVwkGP-101" style="edgeStyle=orthogonalEdgeStyle;rounded=0;orthogonalLoop=1;jettySize=auto;html=1;strokeColor=#028090;fontColor=#E4FDE1;fillColor=#F45B69;" parent="1" source="xNxbDZh3wqqcQROVwkGP-103" target="xNxbDZh3wqqcQROVwkGP-162" edge="1">
                    <mxGeometry relative="1" as="geometry"/>
                </mxCell>
                <mxCell id="xNxbDZh3wqqcQROVwkGP-102" style="edgeStyle=orthogonalEdgeStyle;rounded=0;orthogonalLoop=1;jettySize=auto;html=1;strokeColor=#028090;fontColor=#E4FDE1;fillColor=#F45B69;endArrow=none;endFill=0;" parent="1" source="xNxbDZh3wqqcQROVwkGP-103" target="xNxbDZh3wqqcQROVwkGP-160" edge="1">
                    <mxGeometry relative="1" as="geometry">
                        <Array as="points">
                            <mxPoint x="320" y="550"/>
                            <mxPoint x="320" y="970"/>
                        </Array>
                    </mxGeometry>
                </mxCell>
                <mxCell id="xNxbDZh3wqqcQROVwkGP-103" value="Etudiant" style="swimlane;fontStyle=0;childLayout=stackLayout;horizontal=1;startSize=30;horizontalStack=0;resizeParent=1;resizeParentMax=0;resizeLast=0;collapsible=1;marginBottom=0;whiteSpace=wrap;html=1;fillColor=#F45B69;strokeColor=#028090;labelBackgroundColor=none;fontColor=#E4FDE1;" parent="1" vertex="1">
                    <mxGeometry x="160" y="430" width="140" height="150" as="geometry"/>
                </mxCell>
                <mxCell id="xNxbDZh3wqqcQROVwkGP-104" value="id_etudiant" style="text;strokeColor=none;fillColor=none;align=left;verticalAlign=middle;spacingLeft=4;spacingRight=4;overflow=hidden;points=[[0,0.5],[1,0.5]];portConstraint=eastwest;rotatable=0;whiteSpace=wrap;html=1;labelBackgroundColor=none;fontColor=#E4FDE1;" parent="xNxbDZh3wqqcQROVwkGP-103" vertex="1">
                    <mxGeometry y="30" width="140" height="30" as="geometry"/>
                </mxCell>
                <mxCell id="xNxbDZh3wqqcQROVwkGP-105" value="AnneePromo" style="text;strokeColor=none;fillColor=none;align=left;verticalAlign=middle;spacingLeft=4;spacingRight=4;overflow=hidden;points=[[0,0.5],[1,0.5]];portConstraint=eastwest;rotatable=0;whiteSpace=wrap;html=1;labelBackgroundColor=none;fontColor=#E4FDE1;" parent="xNxbDZh3wqqcQROVwkGP-103" vertex="1">
                    <mxGeometry y="60" width="140" height="30" as="geometry"/>
                </mxCell>
                <mxCell id="xNxbDZh3wqqcQROVwkGP-106" value="CV" style="text;strokeColor=none;fillColor=none;align=left;verticalAlign=middle;spacingLeft=4;spacingRight=4;overflow=hidden;points=[[0,0.5],[1,0.5]];portConstraint=eastwest;rotatable=0;whiteSpace=wrap;html=1;labelBackgroundColor=none;fontColor=#E4FDE1;" parent="xNxbDZh3wqqcQROVwkGP-103" vertex="1">
                    <mxGeometry y="90" width="140" height="30" as="geometry"/>
                </mxCell>
                <mxCell id="xNxbDZh3wqqcQROVwkGP-107" value="poste_entreprise " style="text;strokeColor=none;fillColor=none;align=left;verticalAlign=middle;spacingLeft=4;spacingRight=4;overflow=hidden;points=[[0,0.5],[1,0.5]];portConstraint=eastwest;rotatable=0;whiteSpace=wrap;html=1;labelBackgroundColor=none;fontColor=#E4FDE1;" parent="xNxbDZh3wqqcQROVwkGP-103" vertex="1">
                    <mxGeometry y="120" width="140" height="30" as="geometry"/>
                </mxCell>
                <mxCell id="xNxbDZh3wqqcQROVwkGP-108" style="edgeStyle=orthogonalEdgeStyle;rounded=0;orthogonalLoop=1;jettySize=auto;html=1;exitX=1;exitY=0.5;exitDx=0;exitDy=0;entryX=0.457;entryY=-0.033;entryDx=0;entryDy=0;entryPerimeter=0;labelBackgroundColor=none;strokeColor=#028090;fontColor=default;" parent="1" source="xNxbDZh3wqqcQROVwkGP-110" target="xNxbDZh3wqqcQROVwkGP-103" edge="1">
                    <mxGeometry relative="1" as="geometry"/>
                </mxCell>
                <mxCell id="xNxbDZh3wqqcQROVwkGP-109" style="edgeStyle=orthogonalEdgeStyle;rounded=0;orthogonalLoop=1;jettySize=auto;html=1;exitX=0;exitY=0.5;exitDx=0;exitDy=0;labelBackgroundColor=none;strokeColor=#028090;fontColor=default;" parent="1" source="xNxbDZh3wqqcQROVwkGP-110" target="xNxbDZh3wqqcQROVwkGP-120" edge="1">
                    <mxGeometry relative="1" as="geometry">
                        <Array as="points">
                            <mxPoint x="170" y="370"/>
                            <mxPoint x="-250" y="370"/>
                        </Array>
                    </mxGeometry>
                </mxCell>
                <mxCell id="xNxbDZh3wqqcQROVwkGP-110" value="" style="rhombus;whiteSpace=wrap;html=1;labelBackgroundColor=none;fillColor=#F45B69;strokeColor=#028090;fontColor=#E4FDE1;" parent="1" vertex="1">
                    <mxGeometry x="160" y="320" width="40" height="40" as="geometry"/>
                </mxCell>
                <mxCell id="xNxbDZh3wqqcQROVwkGP-111" style="edgeStyle=orthogonalEdgeStyle;rounded=0;orthogonalLoop=1;jettySize=auto;html=1;endArrow=none;endFill=0;labelBackgroundColor=none;strokeColor=#028090;fontColor=default;" parent="1" source="xNxbDZh3wqqcQROVwkGP-110" target="xNxbDZh3wqqcQROVwkGP-94" edge="1">
                    <mxGeometry relative="1" as="geometry">
                        <mxPoint x="189.01999999999998" y="260.99" as="targetPoint"/>
                    </mxGeometry>
                </mxCell>
                <mxCell id="xNxbDZh3wqqcQROVwkGP-112" style="edgeStyle=orthogonalEdgeStyle;rounded=0;orthogonalLoop=1;jettySize=auto;html=1;strokeColor=#028090;fontColor=#E4FDE1;fillColor=#F45B69;" parent="1" source="xNxbDZh3wqqcQROVwkGP-114" target="xNxbDZh3wqqcQROVwkGP-150" edge="1">
                    <mxGeometry relative="1" as="geometry"/>
                </mxCell>
                <mxCell id="xNxbDZh3wqqcQROVwkGP-113" style="edgeStyle=orthogonalEdgeStyle;rounded=0;orthogonalLoop=1;jettySize=auto;html=1;strokeColor=#028090;fontColor=#E4FDE1;fillColor=#F45B69;endArrow=none;endFill=0;" parent="1" source="xNxbDZh3wqqcQROVwkGP-114" target="xNxbDZh3wqqcQROVwkGP-168" edge="1">
                    <mxGeometry relative="1" as="geometry">
                        <Array as="points">
                            <mxPoint x="-120" y="490"/>
                            <mxPoint x="-120" y="620"/>
                        </Array>
                    </mxGeometry>
                </mxCell>
                <mxCell id="xNxbDZh3wqqcQROVwkGP-114" value="Entreprise" style="swimlane;fontStyle=0;childLayout=stackLayout;horizontal=1;startSize=30;horizontalStack=0;resizeParent=1;resizeParentMax=0;resizeLast=0;collapsible=1;marginBottom=0;whiteSpace=wrap;html=1;fillColor=#F45B69;strokeColor=#028090;labelBackgroundColor=none;fontColor=#E4FDE1;" parent="1" vertex="1">
                    <mxGeometry x="-40" y="430" width="140" height="120" as="geometry"/>
                </mxCell>
                <mxCell id="xNxbDZh3wqqcQROVwkGP-115" value="id_etudiant" style="text;strokeColor=none;fillColor=none;align=left;verticalAlign=middle;spacingLeft=4;spacingRight=4;overflow=hidden;points=[[0,0.5],[1,0.5]];portConstraint=eastwest;rotatable=0;whiteSpace=wrap;html=1;labelBackgroundColor=none;fontColor=#E4FDE1;" parent="xNxbDZh3wqqcQROVwkGP-114" vertex="1">
                    <mxGeometry y="30" width="140" height="30" as="geometry"/>
                </mxCell>
                <mxCell id="xNxbDZh3wqqcQROVwkGP-116" value="poste_entreprise" style="text;strokeColor=none;fillColor=none;align=left;verticalAlign=middle;spacingLeft=4;spacingRight=4;overflow=hidden;points=[[0,0.5],[1,0.5]];portConstraint=eastwest;rotatable=0;whiteSpace=wrap;html=1;labelBackgroundColor=none;fontColor=#E4FDE1;" parent="xNxbDZh3wqqcQROVwkGP-114" vertex="1">
                    <mxGeometry y="60" width="140" height="30" as="geometry"/>
                </mxCell>
                <mxCell id="xNxbDZh3wqqcQROVwkGP-117" value="fiche_entrreprise" style="text;strokeColor=none;fillColor=none;align=left;verticalAlign=middle;spacingLeft=4;spacingRight=4;overflow=hidden;points=[[0,0.5],[1,0.5]];portConstraint=eastwest;rotatable=0;whiteSpace=wrap;html=1;labelBackgroundColor=none;fontColor=#E4FDE1;" parent="xNxbDZh3wqqcQROVwkGP-114" vertex="1">
                    <mxGeometry y="90" width="140" height="30" as="geometry"/>
                </mxCell>
                <mxCell id="xNxbDZh3wqqcQROVwkGP-118" style="edgeStyle=orthogonalEdgeStyle;rounded=0;orthogonalLoop=1;jettySize=auto;html=1;exitX=0.5;exitY=1;exitDx=0;exitDy=0;entryX=0.45;entryY=-0.02;entryDx=0;entryDy=0;entryPerimeter=0;labelBackgroundColor=none;strokeColor=#028090;fontColor=default;" parent="1" source="xNxbDZh3wqqcQROVwkGP-110" target="xNxbDZh3wqqcQROVwkGP-114" edge="1">
                    <mxGeometry relative="1" as="geometry"/>
                </mxCell>
                <mxCell id="xNxbDZh3wqqcQROVwkGP-119" style="edgeStyle=orthogonalEdgeStyle;rounded=0;orthogonalLoop=1;jettySize=auto;html=1;strokeColor=#028090;fontColor=#E4FDE1;fillColor=#F45B69;endArrow=none;endFill=0;" parent="1" source="xNxbDZh3wqqcQROVwkGP-120" target="xNxbDZh3wqqcQROVwkGP-166" edge="1">
                    <mxGeometry relative="1" as="geometry"/>
                </mxCell>
                <mxCell id="xNxbDZh3wqqcQROVwkGP-120" value="Professeur" style="swimlane;fontStyle=0;childLayout=stackLayout;horizontal=1;startSize=30;horizontalStack=0;resizeParent=1;resizeParentMax=0;resizeLast=0;collapsible=1;marginBottom=0;whiteSpace=wrap;html=1;fillColor=#F45B69;strokeColor=#028090;labelBackgroundColor=none;fontColor=#E4FDE1;" parent="1" vertex="1">
                    <mxGeometry x="-320" y="430" width="140" height="120" as="geometry"/>
                </mxCell>
                <mxCell id="xNxbDZh3wqqcQROVwkGP-121" value="id_etudiant" style="text;strokeColor=none;fillColor=none;align=left;verticalAlign=middle;spacingLeft=4;spacingRight=4;overflow=hidden;points=[[0,0.5],[1,0.5]];portConstraint=eastwest;rotatable=0;whiteSpace=wrap;html=1;labelBackgroundColor=none;fontColor=#E4FDE1;" parent="xNxbDZh3wqqcQROVwkGP-120" vertex="1">
                    <mxGeometry y="30" width="140" height="30" as="geometry"/>
                </mxCell>
                <mxCell id="xNxbDZh3wqqcQROVwkGP-122" value="Discipline" style="text;strokeColor=none;fillColor=none;align=left;verticalAlign=middle;spacingLeft=4;spacingRight=4;overflow=hidden;points=[[0,0.5],[1,0.5]];portConstraint=eastwest;rotatable=0;whiteSpace=wrap;html=1;labelBackgroundColor=none;fontColor=#E4FDE1;" parent="xNxbDZh3wqqcQROVwkGP-120" vertex="1">
                    <mxGeometry y="60" width="140" height="30" as="geometry"/>
                </mxCell>
                <mxCell id="xNxbDZh3wqqcQROVwkGP-123" value="formation" style="text;strokeColor=none;fillColor=none;align=left;verticalAlign=middle;spacingLeft=4;spacingRight=4;overflow=hidden;points=[[0,0.5],[1,0.5]];portConstraint=eastwest;rotatable=0;whiteSpace=wrap;html=1;labelBackgroundColor=none;fontColor=#E4FDE1;" parent="xNxbDZh3wqqcQROVwkGP-120" vertex="1">
                    <mxGeometry y="90" width="140" height="30" as="geometry"/>
                </mxCell>
                <mxCell id="xNxbDZh3wqqcQROVwkGP-124" value="Offre" style="swimlane;fontStyle=0;childLayout=stackLayout;horizontal=1;startSize=30;horizontalStack=0;resizeParent=1;resizeParentMax=0;resizeLast=0;collapsible=1;marginBottom=0;whiteSpace=wrap;html=1;fillColor=#F45B69;strokeColor=#028090;labelBackgroundColor=none;fontColor=#E4FDE1;" parent="1" vertex="1">
                    <mxGeometry x="-40" y="730" width="140" height="210" as="geometry"/>
                </mxCell>
                <mxCell id="xNxbDZh3wqqcQROVwkGP-125" value="id_offre" style="text;strokeColor=none;fillColor=none;align=left;verticalAlign=middle;spacingLeft=4;spacingRight=4;overflow=hidden;points=[[0,0.5],[1,0.5]];portConstraint=eastwest;rotatable=0;whiteSpace=wrap;html=1;labelBackgroundColor=none;fontColor=#E4FDE1;" parent="xNxbDZh3wqqcQROVwkGP-124" vertex="1">
                    <mxGeometry y="30" width="140" height="30" as="geometry"/>
                </mxCell>
                <mxCell id="xNxbDZh3wqqcQROVwkGP-126" value="TitreOffre" style="text;strokeColor=none;fillColor=none;align=left;verticalAlign=middle;spacingLeft=4;spacingRight=4;overflow=hidden;points=[[0,0.5],[1,0.5]];portConstraint=eastwest;rotatable=0;whiteSpace=wrap;html=1;labelBackgroundColor=none;fontColor=#E4FDE1;" parent="xNxbDZh3wqqcQROVwkGP-124" vertex="1">
                    <mxGeometry y="60" width="140" height="30" as="geometry"/>
                </mxCell>
                <mxCell id="xNxbDZh3wqqcQROVwkGP-127" value="Description" style="text;strokeColor=none;fillColor=none;align=left;verticalAlign=middle;spacingLeft=4;spacingRight=4;overflow=hidden;points=[[0,0.5],[1,0.5]];portConstraint=eastwest;rotatable=0;whiteSpace=wrap;html=1;labelBackgroundColor=none;fontColor=#E4FDE1;" parent="xNxbDZh3wqqcQROVwkGP-124" vertex="1">
                    <mxGeometry y="90" width="140" height="30" as="geometry"/>
                </mxCell>
                <mxCell id="xNxbDZh3wqqcQROVwkGP-128" value="TypeOffre&amp;nbsp;" style="text;strokeColor=none;fillColor=none;align=left;verticalAlign=middle;spacingLeft=4;spacingRight=4;overflow=hidden;points=[[0,0.5],[1,0.5]];portConstraint=eastwest;rotatable=0;whiteSpace=wrap;html=1;labelBackgroundColor=none;fontColor=#E4FDE1;" parent="xNxbDZh3wqqcQROVwkGP-124" vertex="1">
                    <mxGeometry y="120" width="140" height="30" as="geometry"/>
                </mxCell>
                <mxCell id="xNxbDZh3wqqcQROVwkGP-129" value="EtatOffre&amp;nbsp;" style="text;strokeColor=none;fillColor=none;align=left;verticalAlign=middle;spacingLeft=4;spacingRight=4;overflow=hidden;points=[[0,0.5],[1,0.5]];portConstraint=eastwest;rotatable=0;whiteSpace=wrap;html=1;labelBackgroundColor=none;fontColor=#E4FDE1;" parent="xNxbDZh3wqqcQROVwkGP-124" vertex="1">
                    <mxGeometry y="150" width="140" height="30" as="geometry"/>
                </mxCell>
                <mxCell id="xNxbDZh3wqqcQROVwkGP-130" value="DatePublication" style="text;strokeColor=none;fillColor=none;align=left;verticalAlign=middle;spacingLeft=4;spacingRight=4;overflow=hidden;points=[[0,0.5],[1,0.5]];portConstraint=eastwest;rotatable=0;whiteSpace=wrap;html=1;labelBackgroundColor=none;fontColor=#E4FDE1;" parent="xNxbDZh3wqqcQROVwkGP-124" vertex="1">
                    <mxGeometry y="180" width="140" height="30" as="geometry"/>
                </mxCell>
                <mxCell id="xNxbDZh3wqqcQROVwkGP-131" value="Evenement" style="swimlane;fontStyle=0;childLayout=stackLayout;horizontal=1;startSize=30;horizontalStack=0;resizeParent=1;resizeParentMax=0;resizeLast=0;collapsible=1;marginBottom=0;whiteSpace=wrap;html=1;fillColor=#F45B69;strokeColor=#028090;labelBackgroundColor=none;fontColor=#E4FDE1;" parent="1" vertex="1">
                    <mxGeometry x="-540" y="640" width="140" height="240" as="geometry"/>
                </mxCell>
                <mxCell id="xNxbDZh3wqqcQROVwkGP-132" value="id_evenement" style="text;strokeColor=none;fillColor=none;align=left;verticalAlign=middle;spacingLeft=4;spacingRight=4;overflow=hidden;points=[[0,0.5],[1,0.5]];portConstraint=eastwest;rotatable=0;whiteSpace=wrap;html=1;labelBackgroundColor=none;fontColor=#E4FDE1;" parent="xNxbDZh3wqqcQROVwkGP-131" vertex="1">
                    <mxGeometry y="30" width="140" height="30" as="geometry"/>
                </mxCell>
                <mxCell id="xNxbDZh3wqqcQROVwkGP-133" value="TitreEvenement" style="text;strokeColor=none;fillColor=none;align=left;verticalAlign=middle;spacingLeft=4;spacingRight=4;overflow=hidden;points=[[0,0.5],[1,0.5]];portConstraint=eastwest;rotatable=0;whiteSpace=wrap;html=1;labelBackgroundColor=none;fontColor=#E4FDE1;" parent="xNxbDZh3wqqcQROVwkGP-131" vertex="1">
                    <mxGeometry y="60" width="140" height="30" as="geometry"/>
                </mxCell>
                <mxCell id="xNxbDZh3wqqcQROVwkGP-134" value="Description" style="text;strokeColor=none;fillColor=none;align=left;verticalAlign=middle;spacingLeft=4;spacingRight=4;overflow=hidden;points=[[0,0.5],[1,0.5]];portConstraint=eastwest;rotatable=0;whiteSpace=wrap;html=1;labelBackgroundColor=none;fontColor=#E4FDE1;" parent="xNxbDZh3wqqcQROVwkGP-131" vertex="1">
                    <mxGeometry y="90" width="140" height="30" as="geometry"/>
                </mxCell>
                <mxCell id="xNxbDZh3wqqcQROVwkGP-135" value="Lieu" style="text;strokeColor=none;fillColor=none;align=left;verticalAlign=middle;spacingLeft=4;spacingRight=4;overflow=hidden;points=[[0,0.5],[1,0.5]];portConstraint=eastwest;rotatable=0;whiteSpace=wrap;html=1;labelBackgroundColor=none;fontColor=#E4FDE1;" parent="xNxbDZh3wqqcQROVwkGP-131" vertex="1">
                    <mxGeometry y="120" width="140" height="30" as="geometry"/>
                </mxCell>
                <mxCell id="xNxbDZh3wqqcQROVwkGP-136" value="NombrePlaces" style="text;strokeColor=none;fillColor=none;align=left;verticalAlign=middle;spacingLeft=4;spacingRight=4;overflow=hidden;points=[[0,0.5],[1,0.5]];portConstraint=eastwest;rotatable=0;whiteSpace=wrap;html=1;labelBackgroundColor=none;fontColor=#E4FDE1;" parent="xNxbDZh3wqqcQROVwkGP-131" vertex="1">
                    <mxGeometry y="150" width="140" height="30" as="geometry"/>
                </mxCell>
                <mxCell id="xNxbDZh3wqqcQROVwkGP-137" value="DateEvenement" style="text;strokeColor=none;fillColor=none;align=left;verticalAlign=middle;spacingLeft=4;spacingRight=4;overflow=hidden;points=[[0,0.5],[1,0.5]];portConstraint=eastwest;rotatable=0;whiteSpace=wrap;html=1;labelBackgroundColor=none;fontColor=#E4FDE1;" parent="xNxbDZh3wqqcQROVwkGP-131" vertex="1">
                    <mxGeometry y="180" width="140" height="30" as="geometry"/>
                </mxCell>
                <mxCell id="xNxbDZh3wqqcQROVwkGP-138" value="TypeEvenement" style="text;strokeColor=none;fillColor=none;align=left;verticalAlign=middle;spacingLeft=4;spacingRight=4;overflow=hidden;points=[[0,0.5],[1,0.5]];portConstraint=eastwest;rotatable=0;whiteSpace=wrap;html=1;labelBackgroundColor=none;fontColor=#E4FDE1;" parent="xNxbDZh3wqqcQROVwkGP-131" vertex="1">
                    <mxGeometry y="210" width="140" height="30" as="geometry"/>
                </mxCell>
                <mxCell id="xNxbDZh3wqqcQROVwkGP-139" value="Post" style="swimlane;fontStyle=0;childLayout=stackLayout;horizontal=1;startSize=30;horizontalStack=0;resizeParent=1;resizeParentMax=0;resizeLast=0;collapsible=1;marginBottom=0;whiteSpace=wrap;html=1;fillColor=#F45B69;strokeColor=#028090;labelBackgroundColor=none;fontColor=#E4FDE1;" parent="1" vertex="1">
                    <mxGeometry x="450" y="50" width="140" height="180" as="geometry"/>
                </mxCell>
                <mxCell id="xNxbDZh3wqqcQROVwkGP-140" value="id_post" style="text;strokeColor=none;fillColor=none;align=left;verticalAlign=middle;spacingLeft=4;spacingRight=4;overflow=hidden;points=[[0,0.5],[1,0.5]];portConstraint=eastwest;rotatable=0;whiteSpace=wrap;html=1;labelBackgroundColor=none;fontColor=#E4FDE1;" parent="xNxbDZh3wqqcQROVwkGP-139" vertex="1">
                    <mxGeometry y="30" width="140" height="30" as="geometry"/>
                </mxCell>
                <mxCell id="xNxbDZh3wqqcQROVwkGP-141" value="ContenuPost" style="text;strokeColor=none;fillColor=none;align=left;verticalAlign=middle;spacingLeft=4;spacingRight=4;overflow=hidden;points=[[0,0.5],[1,0.5]];portConstraint=eastwest;rotatable=0;whiteSpace=wrap;html=1;labelBackgroundColor=none;fontColor=#E4FDE1;" parent="xNxbDZh3wqqcQROVwkGP-139" vertex="1">
                    <mxGeometry y="60" width="140" height="30" as="geometry"/>
                </mxCell>
                <mxCell id="xNxbDZh3wqqcQROVwkGP-142" value="Titre" style="text;strokeColor=none;fillColor=none;align=left;verticalAlign=middle;spacingLeft=4;spacingRight=4;overflow=hidden;points=[[0,0.5],[1,0.5]];portConstraint=eastwest;rotatable=0;whiteSpace=wrap;html=1;labelBackgroundColor=none;fontColor=#E4FDE1;" parent="xNxbDZh3wqqcQROVwkGP-139" vertex="1">
                    <mxGeometry y="90" width="140" height="30" as="geometry"/>
                </mxCell>
                <mxCell id="xNxbDZh3wqqcQROVwkGP-143" value="date_heure_publication" style="text;strokeColor=none;fillColor=none;align=left;verticalAlign=middle;spacingLeft=4;spacingRight=4;overflow=hidden;points=[[0,0.5],[1,0.5]];portConstraint=eastwest;rotatable=0;whiteSpace=wrap;html=1;labelBackgroundColor=none;fontColor=#E4FDE1;" parent="xNxbDZh3wqqcQROVwkGP-139" vertex="1">
                    <mxGeometry y="120" width="140" height="30" as="geometry"/>
                </mxCell>
                <mxCell id="xNxbDZh3wqqcQROVwkGP-144" value="canal" style="text;strokeColor=none;fillColor=none;align=left;verticalAlign=middle;spacingLeft=4;spacingRight=4;overflow=hidden;points=[[0,0.5],[1,0.5]];portConstraint=eastwest;rotatable=0;whiteSpace=wrap;html=1;labelBackgroundColor=none;fontColor=#E4FDE1;" parent="xNxbDZh3wqqcQROVwkGP-139" vertex="1">
                    <mxGeometry y="150" width="140" height="30" as="geometry"/>
                </mxCell>
                <mxCell id="xNxbDZh3wqqcQROVwkGP-145" style="edgeStyle=orthogonalEdgeStyle;rounded=0;orthogonalLoop=1;jettySize=auto;html=1;exitX=0.5;exitY=0;exitDx=0;exitDy=0;entryX=0.5;entryY=1;entryDx=0;entryDy=0;labelBackgroundColor=none;strokeColor=#028090;fontColor=default;" parent="1" source="xNxbDZh3wqqcQROVwkGP-146" target="xNxbDZh3wqqcQROVwkGP-152" edge="1">
                    <mxGeometry relative="1" as="geometry">
                        <mxPoint x="700" y="820" as="targetPoint"/>
                    </mxGeometry>
                </mxCell>
                <mxCell id="xNxbDZh3wqqcQROVwkGP-146" value="Réponse" style="swimlane;fontStyle=0;childLayout=stackLayout;horizontal=1;startSize=30;horizontalStack=0;resizeParent=1;resizeParentMax=0;resizeLast=0;collapsible=1;marginBottom=0;whiteSpace=wrap;html=1;fillColor=#F45B69;strokeColor=#028090;labelBackgroundColor=none;fontColor=#E4FDE1;" parent="1" vertex="1">
                    <mxGeometry x="450" y="410" width="140" height="120" as="geometry"/>
                </mxCell>
                <mxCell id="xNxbDZh3wqqcQROVwkGP-147" value="id_reponse" style="text;strokeColor=none;fillColor=none;align=left;verticalAlign=middle;spacingLeft=4;spacingRight=4;overflow=hidden;points=[[0,0.5],[1,0.5]];portConstraint=eastwest;rotatable=0;whiteSpace=wrap;html=1;labelBackgroundColor=none;fontColor=#E4FDE1;" parent="xNxbDZh3wqqcQROVwkGP-146" vertex="1">
                    <mxGeometry y="30" width="140" height="30" as="geometry"/>
                </mxCell>
                <mxCell id="xNxbDZh3wqqcQROVwkGP-148" value="Contenu" style="text;strokeColor=none;fillColor=none;align=left;verticalAlign=middle;spacingLeft=4;spacingRight=4;overflow=hidden;points=[[0,0.5],[1,0.5]];portConstraint=eastwest;rotatable=0;whiteSpace=wrap;html=1;labelBackgroundColor=none;fontColor=#E4FDE1;" parent="xNxbDZh3wqqcQROVwkGP-146" vertex="1">
                    <mxGeometry y="60" width="140" height="30" as="geometry"/>
                </mxCell>
                <mxCell id="xNxbDZh3wqqcQROVwkGP-149" value="date_heure_reponse" style="text;strokeColor=none;fillColor=none;align=left;verticalAlign=middle;spacingLeft=4;spacingRight=4;overflow=hidden;points=[[0,0.5],[1,0.5]];portConstraint=eastwest;rotatable=0;whiteSpace=wrap;html=1;labelBackgroundColor=none;fontColor=#E4FDE1;" parent="xNxbDZh3wqqcQROVwkGP-146" vertex="1">
                    <mxGeometry y="90" width="140" height="30" as="geometry"/>
                </mxCell>
                <mxCell id="xNxbDZh3wqqcQROVwkGP-150" value="Créé" style="rounded=1;whiteSpace=wrap;html=1;labelBackgroundColor=none;fillColor=#F45B69;strokeColor=#028090;fontColor=#E4FDE1;" parent="1" vertex="1">
                    <mxGeometry x="-30" y="620" width="120" height="60" as="geometry"/>
                </mxCell>
                <mxCell id="xNxbDZh3wqqcQROVwkGP-151" style="edgeStyle=orthogonalEdgeStyle;rounded=0;orthogonalLoop=1;jettySize=auto;html=1;labelBackgroundColor=none;strokeColor=#028090;fontColor=default;" parent="1" source="xNxbDZh3wqqcQROVwkGP-150" target="xNxbDZh3wqqcQROVwkGP-124" edge="1">
                    <mxGeometry relative="1" as="geometry">
                        <Array as="points">
                            <mxPoint x="30" y="810"/>
                        </Array>
                    </mxGeometry>
                </mxCell>
                <mxCell id="xNxbDZh3wqqcQROVwkGP-152" value="A" style="rounded=1;whiteSpace=wrap;html=1;labelBackgroundColor=none;fillColor=#F45B69;strokeColor=#028090;fontColor=#E4FDE1;" parent="1" vertex="1">
                    <mxGeometry x="460" y="300" width="120" height="60" as="geometry"/>
                </mxCell>
                <mxCell id="xNxbDZh3wqqcQROVwkGP-153" style="edgeStyle=orthogonalEdgeStyle;rounded=0;orthogonalLoop=1;jettySize=auto;html=1;exitX=0.5;exitY=0;exitDx=0;exitDy=0;entryX=0.511;entryY=1.025;entryDx=0;entryDy=0;entryPerimeter=0;labelBackgroundColor=none;strokeColor=#028090;fontColor=default;" parent="1" source="xNxbDZh3wqqcQROVwkGP-152" target="xNxbDZh3wqqcQROVwkGP-144" edge="1">
                    <mxGeometry relative="1" as="geometry"/>
                </mxCell>
                <mxCell id="xNxbDZh3wqqcQROVwkGP-154" value="Alumni" style="swimlane;fontStyle=0;childLayout=stackLayout;horizontal=1;startSize=30;horizontalStack=0;resizeParent=1;resizeParentMax=0;resizeLast=0;collapsible=1;marginBottom=0;whiteSpace=wrap;html=1;fillColor=#F45B69;strokeColor=#028090;labelBackgroundColor=none;fontColor=#E4FDE1;" parent="1" vertex="1">
                    <mxGeometry x="340" y="730" width="140" height="120" as="geometry"/>
                </mxCell>
                <mxCell id="xNxbDZh3wqqcQROVwkGP-155" value="id_alumni" style="text;strokeColor=none;fillColor=none;align=left;verticalAlign=middle;spacingLeft=4;spacingRight=4;overflow=hidden;points=[[0,0.5],[1,0.5]];portConstraint=eastwest;rotatable=0;whiteSpace=wrap;html=1;labelBackgroundColor=none;fontColor=#E4FDE1;" parent="xNxbDZh3wqqcQROVwkGP-154" vertex="1">
                    <mxGeometry y="30" width="140" height="30" as="geometry"/>
                </mxCell>
                <mxCell id="xNxbDZh3wqqcQROVwkGP-156" value="entreprise" style="text;strokeColor=none;fillColor=none;align=left;verticalAlign=middle;spacingLeft=4;spacingRight=4;overflow=hidden;points=[[0,0.5],[1,0.5]];portConstraint=eastwest;rotatable=0;whiteSpace=wrap;html=1;labelBackgroundColor=none;fontColor=#E4FDE1;" parent="xNxbDZh3wqqcQROVwkGP-154" vertex="1">
                    <mxGeometry y="60" width="140" height="30" as="geometry"/>
                </mxCell>
                <mxCell id="xNxbDZh3wqqcQROVwkGP-157" value="poste" style="text;strokeColor=none;fillColor=none;align=left;verticalAlign=middle;spacingLeft=4;spacingRight=4;overflow=hidden;points=[[0,0.5],[1,0.5]];portConstraint=eastwest;rotatable=0;whiteSpace=wrap;html=1;labelBackgroundColor=none;fontColor=#E4FDE1;" parent="xNxbDZh3wqqcQROVwkGP-154" vertex="1">
                    <mxGeometry y="90" width="140" height="30" as="geometry"/>
                </mxCell>
                <mxCell id="xNxbDZh3wqqcQROVwkGP-158" style="edgeStyle=orthogonalEdgeStyle;rounded=0;orthogonalLoop=1;jettySize=auto;html=1;strokeColor=#028090;fontColor=#E4FDE1;fillColor=#F45B69;endArrow=none;endFill=0;" parent="1" source="xNxbDZh3wqqcQROVwkGP-159" target="xNxbDZh3wqqcQROVwkGP-154" edge="1">
                    <mxGeometry relative="1" as="geometry"/>
                </mxCell>
                <mxCell id="xNxbDZh3wqqcQROVwkGP-159" value="" style="rhombus;whiteSpace=wrap;html=1;labelBackgroundColor=none;fillColor=#F45B69;strokeColor=#028090;fontColor=#E4FDE1;" parent="1" vertex="1">
                    <mxGeometry x="360" y="630" width="40" height="40" as="geometry"/>
                </mxCell>
                <mxCell id="xNxbDZh3wqqcQROVwkGP-160" value="Participe" style="rounded=1;whiteSpace=wrap;html=1;labelBackgroundColor=none;fillColor=#F45B69;strokeColor=#028090;fontColor=#E4FDE1;" parent="1" vertex="1">
                    <mxGeometry x="-430" y="940" width="120" height="60" as="geometry"/>
                </mxCell>
                <mxCell id="xNxbDZh3wqqcQROVwkGP-161" style="edgeStyle=orthogonalEdgeStyle;rounded=0;orthogonalLoop=1;jettySize=auto;html=1;strokeColor=#028090;fontColor=#E4FDE1;fillColor=#F45B69;endArrow=none;endFill=0;" parent="1" source="xNxbDZh3wqqcQROVwkGP-162" target="xNxbDZh3wqqcQROVwkGP-124" edge="1">
                    <mxGeometry relative="1" as="geometry">
                        <Array as="points">
                            <mxPoint x="230" y="835"/>
                        </Array>
                    </mxGeometry>
                </mxCell>
                <mxCell id="xNxbDZh3wqqcQROVwkGP-162" value="Candidate&lt;div&gt;date&lt;/div&gt;&lt;div&gt;status&lt;/div&gt;" style="rounded=1;whiteSpace=wrap;html=1;labelBackgroundColor=none;fillColor=#F45B69;strokeColor=#028090;fontColor=#E4FDE1;" parent="1" vertex="1">
                    <mxGeometry x="170" y="730" width="120" height="60" as="geometry"/>
                </mxCell>
                <mxCell id="xNxbDZh3wqqcQROVwkGP-163" style="edgeStyle=orthogonalEdgeStyle;rounded=0;orthogonalLoop=1;jettySize=auto;html=1;strokeColor=#028090;fontColor=#E4FDE1;fillColor=#F45B69;" parent="1" source="xNxbDZh3wqqcQROVwkGP-164" target="xNxbDZh3wqqcQROVwkGP-139" edge="1">
                    <mxGeometry relative="1" as="geometry"/>
                </mxCell>
                <mxCell id="xNxbDZh3wqqcQROVwkGP-164" value="Créé" style="rounded=1;whiteSpace=wrap;html=1;labelBackgroundColor=none;fillColor=#F45B69;strokeColor=#028090;fontColor=#E4FDE1;" parent="1" vertex="1">
                    <mxGeometry x="290" y="110" width="120" height="60" as="geometry"/>
                </mxCell>
                <mxCell id="xNxbDZh3wqqcQROVwkGP-165" style="edgeStyle=orthogonalEdgeStyle;rounded=0;orthogonalLoop=1;jettySize=auto;html=1;strokeColor=#028090;fontColor=#E4FDE1;fillColor=#F45B69;endArrow=none;endFill=0;" parent="1" source="xNxbDZh3wqqcQROVwkGP-166" target="xNxbDZh3wqqcQROVwkGP-131" edge="1">
                    <mxGeometry relative="1" as="geometry"/>
                </mxCell>
                <mxCell id="xNxbDZh3wqqcQROVwkGP-166" value="Créé" style="rounded=1;whiteSpace=wrap;html=1;labelBackgroundColor=none;fillColor=#F45B69;strokeColor=#028090;fontColor=#E4FDE1;" parent="1" vertex="1">
                    <mxGeometry x="-530" y="460" width="120" height="60" as="geometry"/>
                </mxCell>
                <mxCell id="xNxbDZh3wqqcQROVwkGP-167" style="edgeStyle=orthogonalEdgeStyle;rounded=0;orthogonalLoop=1;jettySize=auto;html=1;strokeColor=#028090;fontColor=#E4FDE1;fillColor=#F45B69;endArrow=none;endFill=0;" parent="1" source="xNxbDZh3wqqcQROVwkGP-168" target="xNxbDZh3wqqcQROVwkGP-131" edge="1">
                    <mxGeometry relative="1" as="geometry"/>
                </mxCell>
                <mxCell id="xNxbDZh3wqqcQROVwkGP-168" value="Créé" style="rounded=1;whiteSpace=wrap;html=1;labelBackgroundColor=none;fillColor=#F45B69;strokeColor=#028090;fontColor=#E4FDE1;" parent="1" vertex="1">
                    <mxGeometry x="-320" y="590" width="120" height="60" as="geometry"/>
                </mxCell>
                <mxCell id="xNxbDZh3wqqcQROVwkGP-169" value="0.N" style="text;html=1;align=center;verticalAlign=middle;resizable=0;points=[];autosize=1;strokeColor=none;fillColor=none;" parent="1" vertex="1">
                    <mxGeometry x="250" y="110" width="40" height="30" as="geometry"/>
                </mxCell>
                <mxCell id="xNxbDZh3wqqcQROVwkGP-170" value="1.1" style="text;html=1;align=center;verticalAlign=middle;resizable=0;points=[];autosize=1;strokeColor=none;fillColor=none;" parent="1" vertex="1">
                    <mxGeometry x="410" y="110" width="40" height="30" as="geometry"/>
                </mxCell>
                <mxCell id="xNxbDZh3wqqcQROVwkGP-171" value="0.N" style="text;html=1;align=center;verticalAlign=middle;resizable=0;points=[];autosize=1;strokeColor=none;fillColor=none;" parent="1" vertex="1">
                    <mxGeometry x="520" y="230" width="40" height="30" as="geometry"/>
                </mxCell>
                <mxCell id="xNxbDZh3wqqcQROVwkGP-172" value="1.1" style="text;html=1;align=center;verticalAlign=middle;resizable=0;points=[];autosize=1;strokeColor=none;fillColor=none;" parent="1" vertex="1">
                    <mxGeometry x="520" y="380" width="40" height="30" as="geometry"/>
                </mxCell>
                <mxCell id="xNxbDZh3wqqcQROVwkGP-173" value="0.N" style="text;html=1;align=center;verticalAlign=middle;resizable=0;points=[];autosize=1;strokeColor=none;fillColor=none;" parent="1" vertex="1">
                    <mxGeometry x="30" y="550" width="40" height="30" as="geometry"/>
                </mxCell>
                <mxCell id="xNxbDZh3wqqcQROVwkGP-174" value="1.1" style="text;html=1;align=center;verticalAlign=middle;resizable=0;points=[];autosize=1;strokeColor=none;fillColor=none;" parent="1" vertex="1">
                    <mxGeometry x="30" y="700" width="40" height="30" as="geometry"/>
                </mxCell>
                <mxCell id="xNxbDZh3wqqcQROVwkGP-175" value="0.N" style="text;html=1;align=center;verticalAlign=middle;resizable=0;points=[];autosize=1;strokeColor=none;fillColor=none;" parent="1" vertex="1">
                    <mxGeometry x="230" y="580" width="40" height="30" as="geometry"/>
                </mxCell>
                <mxCell id="xNxbDZh3wqqcQROVwkGP-176" value="0.N" style="text;html=1;align=center;verticalAlign=middle;resizable=0;points=[];autosize=1;strokeColor=none;fillColor=none;" parent="1" vertex="1">
                    <mxGeometry x="100" y="800" width="40" height="30" as="geometry"/>
                </mxCell>
                <mxCell id="xNxbDZh3wqqcQROVwkGP-177" value="0.N" style="text;html=1;align=center;verticalAlign=middle;resizable=0;points=[];autosize=1;strokeColor=none;fillColor=none;" parent="1" vertex="1">
                    <mxGeometry x="300" y="520" width="40" height="30" as="geometry"/>
                </mxCell>
                <mxCell id="xNxbDZh3wqqcQROVwkGP-178" value="0.N" style="text;html=1;align=center;verticalAlign=middle;resizable=0;points=[];autosize=1;strokeColor=none;fillColor=none;" parent="1" vertex="1">
                    <mxGeometry x="-470" y="880" width="40" height="30" as="geometry"/>
                </mxCell>
                <mxCell id="xNxbDZh3wqqcQROVwkGP-179" value="0.N" style="text;html=1;align=center;verticalAlign=middle;resizable=0;points=[];autosize=1;strokeColor=none;fillColor=none;" parent="1" vertex="1">
                    <mxGeometry x="-80" y="460" width="40" height="30" as="geometry"/>
                </mxCell>
                <mxCell id="xNxbDZh3wqqcQROVwkGP-180" value="0.N" style="text;html=1;align=center;verticalAlign=middle;resizable=0;points=[];autosize=1;strokeColor=none;fillColor=none;" parent="1" vertex="1">
                    <mxGeometry x="-360" y="460" width="40" height="30" as="geometry"/>
                </mxCell>
                <mxCell id="xNxbDZh3wqqcQROVwkGP-181" value="0.1" style="text;html=1;align=center;verticalAlign=middle;resizable=0;points=[];autosize=1;strokeColor=none;fillColor=none;" parent="1" vertex="1">
                    <mxGeometry x="-400" y="730" width="40" height="30" as="geometry"/>
                </mxCell>
                <mxCell id="xNxbDZh3wqqcQROVwkGP-182" value="0.1" style="text;html=1;align=center;verticalAlign=middle;resizable=0;points=[];autosize=1;strokeColor=none;fillColor=none;" parent="1" vertex="1">
                    <mxGeometry x="-470" y="610" width="40" height="30" as="geometry"/>
                </mxCell>
                <mxCell id="8DYDZlaTFOP0Rg6pcb9N-1" value="Text" style="text;strokeColor=none;align=center;fillColor=none;html=1;verticalAlign=middle;whiteSpace=wrap;rounded=0;" vertex="1" parent="1">
                    <mxGeometry x="270" y="-10" width="60" height="30" as="geometry"/>
                </mxCell>
            </root>
        </mxGraphModel>
    </diagram>
    <diagram name="MLD" id="_LgHuli7on-17BZIK3fs">
        <mxGraphModel dx="2078" dy="1204" grid="1" gridSize="10" guides="1" tooltips="1" connect="1" arrows="1" fold="1" page="0" pageScale="1" pageWidth="827" pageHeight="1169" math="0" shadow="0">
            <root>
                <mxCell id="8eXREgXHeoMpqVfYINqJ-0"/>
                <mxCell id="8eXREgXHeoMpqVfYINqJ-1" parent="8eXREgXHeoMpqVfYINqJ-0"/>
                <mxCell id="T_vao26rudjLCwdwVRNc-19" style="edgeStyle=orthogonalEdgeStyle;rounded=0;orthogonalLoop=1;jettySize=auto;html=1;strokeWidth=3;strokeColor=#A3A3A3;endArrow=oval;endFill=1;" parent="8eXREgXHeoMpqVfYINqJ-1" source="T_vao26rudjLCwdwVRNc-18" target="T_vao26rudjLCwdwVRNc-10" edge="1">
                    <mxGeometry relative="1" as="geometry">
                        <Array as="points">
                            <mxPoint x="-210" y="545"/>
                            <mxPoint x="-210" y="670"/>
                        </Array>
                    </mxGeometry>
                </mxCell>
                <mxCell id="8eXREgXHeoMpqVfYINqJ-4" value="Utilisateur" style="swimlane;fontStyle=0;childLayout=stackLayout;horizontal=1;startSize=30;horizontalStack=0;resizeParent=1;resizeParentMax=0;resizeLast=0;collapsible=1;marginBottom=0;whiteSpace=wrap;html=1;fillColor=#F45B69;strokeColor=#028090;labelBackgroundColor=none;fontColor=#E4FDE1;" parent="8eXREgXHeoMpqVfYINqJ-1" vertex="1">
                    <mxGeometry x="320" y="10" width="120" height="180" as="geometry"/>
                </mxCell>
                <mxCell id="8eXREgXHeoMpqVfYINqJ-5" value="&lt;span&gt;id&lt;/span&gt;" style="text;strokeColor=none;fillColor=none;align=left;verticalAlign=middle;spacingLeft=4;spacingRight=4;overflow=hidden;points=[[0,0.5],[1,0.5]];portConstraint=eastwest;rotatable=0;whiteSpace=wrap;html=1;labelBackgroundColor=none;fontColor=#E4FDE1;fontStyle=4" parent="8eXREgXHeoMpqVfYINqJ-4" vertex="1">
                    <mxGeometry y="30" width="120" height="30" as="geometry"/>
                </mxCell>
                <mxCell id="8eXREgXHeoMpqVfYINqJ-6" value="nom" style="text;strokeColor=none;fillColor=none;align=left;verticalAlign=middle;spacingLeft=4;spacingRight=4;overflow=hidden;points=[[0,0.5],[1,0.5]];portConstraint=eastwest;rotatable=0;whiteSpace=wrap;html=1;labelBackgroundColor=none;fontColor=#E4FDE1;" parent="8eXREgXHeoMpqVfYINqJ-4" vertex="1">
                    <mxGeometry y="60" width="120" height="30" as="geometry"/>
                </mxCell>
                <mxCell id="8eXREgXHeoMpqVfYINqJ-7" value="prenom" style="text;strokeColor=none;fillColor=none;align=left;verticalAlign=middle;spacingLeft=4;spacingRight=4;overflow=hidden;points=[[0,0.5],[1,0.5]];portConstraint=eastwest;rotatable=0;whiteSpace=wrap;html=1;labelBackgroundColor=none;fontColor=#E4FDE1;" parent="8eXREgXHeoMpqVfYINqJ-4" vertex="1">
                    <mxGeometry y="90" width="120" height="30" as="geometry"/>
                </mxCell>
                <mxCell id="8eXREgXHeoMpqVfYINqJ-8" value="email" style="text;strokeColor=none;fillColor=none;align=left;verticalAlign=middle;spacingLeft=4;spacingRight=4;overflow=hidden;points=[[0,0.5],[1,0.5]];portConstraint=eastwest;rotatable=0;whiteSpace=wrap;html=1;labelBackgroundColor=none;fontColor=#E4FDE1;" parent="8eXREgXHeoMpqVfYINqJ-4" vertex="1">
                    <mxGeometry y="120" width="120" height="30" as="geometry"/>
                </mxCell>
                <mxCell id="8eXREgXHeoMpqVfYINqJ-9" value="MDP" style="text;strokeColor=none;fillColor=none;align=left;verticalAlign=middle;spacingLeft=4;spacingRight=4;overflow=hidden;points=[[0,0.5],[1,0.5]];portConstraint=eastwest;rotatable=0;whiteSpace=wrap;html=1;labelBackgroundColor=none;fontColor=#E4FDE1;" parent="8eXREgXHeoMpqVfYINqJ-4" vertex="1">
                    <mxGeometry y="150" width="120" height="30" as="geometry"/>
                </mxCell>
                <mxCell id="8eXREgXHeoMpqVfYINqJ-13" value="Etudiant" style="swimlane;fontStyle=0;childLayout=stackLayout;horizontal=1;startSize=30;horizontalStack=0;resizeParent=1;resizeParentMax=0;resizeLast=0;collapsible=1;marginBottom=0;whiteSpace=wrap;html=1;fillColor=#F45B69;strokeColor=#028090;labelBackgroundColor=none;fontColor=#E4FDE1;" parent="8eXREgXHeoMpqVfYINqJ-1" vertex="1">
                    <mxGeometry x="160" y="10" width="120" height="180" as="geometry"/>
                </mxCell>
                <mxCell id="8eXREgXHeoMpqVfYINqJ-14" value="&lt;span&gt;id&lt;/span&gt;" style="text;strokeColor=none;fillColor=none;align=left;verticalAlign=middle;spacingLeft=4;spacingRight=4;overflow=hidden;points=[[0,0.5],[1,0.5]];portConstraint=eastwest;rotatable=0;whiteSpace=wrap;html=1;labelBackgroundColor=none;fontColor=#E4FDE1;fontStyle=4" parent="8eXREgXHeoMpqVfYINqJ-13" vertex="1">
                    <mxGeometry y="30" width="120" height="30" as="geometry"/>
                </mxCell>
                <mxCell id="8eXREgXHeoMpqVfYINqJ-15" value="AnneePromo" style="text;strokeColor=none;fillColor=none;align=left;verticalAlign=middle;spacingLeft=4;spacingRight=4;overflow=hidden;points=[[0,0.5],[1,0.5]];portConstraint=eastwest;rotatable=0;whiteSpace=wrap;html=1;labelBackgroundColor=none;fontColor=#E4FDE1;" parent="8eXREgXHeoMpqVfYINqJ-13" vertex="1">
                    <mxGeometry y="60" width="120" height="30" as="geometry"/>
                </mxCell>
                <mxCell id="8eXREgXHeoMpqVfYINqJ-16" value="CV" style="text;strokeColor=none;fillColor=none;align=left;verticalAlign=middle;spacingLeft=4;spacingRight=4;overflow=hidden;points=[[0,0.5],[1,0.5]];portConstraint=eastwest;rotatable=0;whiteSpace=wrap;html=1;labelBackgroundColor=none;fontColor=#E4FDE1;" parent="8eXREgXHeoMpqVfYINqJ-13" vertex="1">
                    <mxGeometry y="90" width="120" height="30" as="geometry"/>
                </mxCell>
                <mxCell id="8eXREgXHeoMpqVfYINqJ-17" value="poste_entreprise " style="text;strokeColor=none;fillColor=none;align=left;verticalAlign=middle;spacingLeft=4;spacingRight=4;overflow=hidden;points=[[0,0.5],[1,0.5]];portConstraint=eastwest;rotatable=0;whiteSpace=wrap;html=1;labelBackgroundColor=none;fontColor=#E4FDE1;" parent="8eXREgXHeoMpqVfYINqJ-13" vertex="1">
                    <mxGeometry y="120" width="120" height="30" as="geometry"/>
                </mxCell>
                <mxCell id="dQ9HWBghNhe_7UMcfGnW-4" value="#ref_utilisateur" style="text;strokeColor=none;fillColor=none;align=left;verticalAlign=middle;spacingLeft=4;spacingRight=4;overflow=hidden;points=[[0,0.5],[1,0.5]];portConstraint=eastwest;rotatable=0;whiteSpace=wrap;html=1;labelBackgroundColor=none;fontColor=#E4FDE1;" parent="8eXREgXHeoMpqVfYINqJ-13" vertex="1">
                    <mxGeometry y="150" width="120" height="30" as="geometry"/>
                </mxCell>
                <mxCell id="8eXREgXHeoMpqVfYINqJ-24" value="Entreprise" style="swimlane;fontStyle=0;childLayout=stackLayout;horizontal=1;startSize=30;horizontalStack=0;resizeParent=1;resizeParentMax=0;resizeLast=0;collapsible=1;marginBottom=0;whiteSpace=wrap;html=1;fillColor=#F45B69;strokeColor=#028090;labelBackgroundColor=none;fontColor=#E4FDE1;" parent="8eXREgXHeoMpqVfYINqJ-1" vertex="1">
                    <mxGeometry x="-40" y="10" width="120" height="150" as="geometry"/>
                </mxCell>
                <mxCell id="8eXREgXHeoMpqVfYINqJ-25" value="id" style="text;strokeColor=none;fillColor=none;align=left;verticalAlign=middle;spacingLeft=4;spacingRight=4;overflow=hidden;points=[[0,0.5],[1,0.5]];portConstraint=eastwest;rotatable=0;whiteSpace=wrap;html=1;labelBackgroundColor=none;fontColor=#E4FDE1;fontStyle=4" parent="8eXREgXHeoMpqVfYINqJ-24" vertex="1">
                    <mxGeometry y="30" width="120" height="30" as="geometry"/>
                </mxCell>
                <mxCell id="8eXREgXHeoMpqVfYINqJ-26" value="poste_entreprise" style="text;strokeColor=none;fillColor=none;align=left;verticalAlign=middle;spacingLeft=4;spacingRight=4;overflow=hidden;points=[[0,0.5],[1,0.5]];portConstraint=eastwest;rotatable=0;whiteSpace=wrap;html=1;labelBackgroundColor=none;fontColor=#E4FDE1;" parent="8eXREgXHeoMpqVfYINqJ-24" vertex="1">
                    <mxGeometry y="60" width="120" height="30" as="geometry"/>
                </mxCell>
                <mxCell id="8eXREgXHeoMpqVfYINqJ-27" value="fiche_entrreprise" style="text;strokeColor=none;fillColor=none;align=left;verticalAlign=middle;spacingLeft=4;spacingRight=4;overflow=hidden;points=[[0,0.5],[1,0.5]];portConstraint=eastwest;rotatable=0;whiteSpace=wrap;html=1;labelBackgroundColor=none;fontColor=#E4FDE1;" parent="8eXREgXHeoMpqVfYINqJ-24" vertex="1">
                    <mxGeometry y="90" width="120" height="30" as="geometry"/>
                </mxCell>
                <mxCell id="dQ9HWBghNhe_7UMcfGnW-6" value="#ref_utilisateur" style="text;strokeColor=none;fillColor=none;align=left;verticalAlign=middle;spacingLeft=4;spacingRight=4;overflow=hidden;points=[[0,0.5],[1,0.5]];portConstraint=eastwest;rotatable=0;whiteSpace=wrap;html=1;labelBackgroundColor=none;fontColor=#E4FDE1;" parent="8eXREgXHeoMpqVfYINqJ-24" vertex="1">
                    <mxGeometry y="120" width="120" height="30" as="geometry"/>
                </mxCell>
                <mxCell id="8eXREgXHeoMpqVfYINqJ-30" value="Professeur" style="swimlane;fontStyle=0;childLayout=stackLayout;horizontal=1;startSize=30;horizontalStack=0;resizeParent=1;resizeParentMax=0;resizeLast=0;collapsible=1;marginBottom=0;whiteSpace=wrap;html=1;fillColor=#F45B69;strokeColor=#028090;labelBackgroundColor=none;fontColor=#E4FDE1;" parent="8eXREgXHeoMpqVfYINqJ-1" vertex="1">
                    <mxGeometry x="-200" y="10" width="120" height="150" as="geometry"/>
                </mxCell>
                <mxCell id="8eXREgXHeoMpqVfYINqJ-31" value="id" style="text;strokeColor=none;fillColor=none;align=left;verticalAlign=middle;spacingLeft=4;spacingRight=4;overflow=hidden;points=[[0,0.5],[1,0.5]];portConstraint=eastwest;rotatable=0;whiteSpace=wrap;html=1;labelBackgroundColor=none;fontColor=#E4FDE1;fontStyle=4" parent="8eXREgXHeoMpqVfYINqJ-30" vertex="1">
                    <mxGeometry y="30" width="120" height="30" as="geometry"/>
                </mxCell>
                <mxCell id="8eXREgXHeoMpqVfYINqJ-32" value="Discipline" style="text;strokeColor=none;fillColor=none;align=left;verticalAlign=middle;spacingLeft=4;spacingRight=4;overflow=hidden;points=[[0,0.5],[1,0.5]];portConstraint=eastwest;rotatable=0;whiteSpace=wrap;html=1;labelBackgroundColor=none;fontColor=#E4FDE1;" parent="8eXREgXHeoMpqVfYINqJ-30" vertex="1">
                    <mxGeometry y="60" width="120" height="30" as="geometry"/>
                </mxCell>
                <mxCell id="8eXREgXHeoMpqVfYINqJ-33" value="formation" style="text;strokeColor=none;fillColor=none;align=left;verticalAlign=middle;spacingLeft=4;spacingRight=4;overflow=hidden;points=[[0,0.5],[1,0.5]];portConstraint=eastwest;rotatable=0;whiteSpace=wrap;html=1;labelBackgroundColor=none;fontColor=#E4FDE1;" parent="8eXREgXHeoMpqVfYINqJ-30" vertex="1">
                    <mxGeometry y="90" width="120" height="30" as="geometry"/>
                </mxCell>
                <mxCell id="dQ9HWBghNhe_7UMcfGnW-15" value="#ref_utilisateur" style="text;strokeColor=none;fillColor=none;align=left;verticalAlign=middle;spacingLeft=4;spacingRight=4;overflow=hidden;points=[[0,0.5],[1,0.5]];portConstraint=eastwest;rotatable=0;whiteSpace=wrap;html=1;labelBackgroundColor=none;fontColor=#E4FDE1;" parent="8eXREgXHeoMpqVfYINqJ-30" vertex="1">
                    <mxGeometry y="120" width="120" height="30" as="geometry"/>
                </mxCell>
                <mxCell id="8eXREgXHeoMpqVfYINqJ-34" value="Offre" style="swimlane;fontStyle=0;childLayout=stackLayout;horizontal=1;startSize=30;horizontalStack=0;resizeParent=1;resizeParentMax=0;resizeLast=0;collapsible=1;marginBottom=0;whiteSpace=wrap;html=1;fillColor=#F45B69;strokeColor=#028090;labelBackgroundColor=none;fontColor=#E4FDE1;" parent="8eXREgXHeoMpqVfYINqJ-1" vertex="1">
                    <mxGeometry x="-380" y="440" width="140" height="240" as="geometry"/>
                </mxCell>
                <mxCell id="8eXREgXHeoMpqVfYINqJ-35" value="id" style="text;strokeColor=none;fillColor=none;align=left;verticalAlign=middle;spacingLeft=4;spacingRight=4;overflow=hidden;points=[[0,0.5],[1,0.5]];portConstraint=eastwest;rotatable=0;whiteSpace=wrap;html=1;labelBackgroundColor=none;fontColor=#E4FDE1;fontStyle=4" parent="8eXREgXHeoMpqVfYINqJ-34" vertex="1">
                    <mxGeometry y="30" width="140" height="30" as="geometry"/>
                </mxCell>
                <mxCell id="8eXREgXHeoMpqVfYINqJ-36" value="TitreOffre" style="text;strokeColor=none;fillColor=none;align=left;verticalAlign=middle;spacingLeft=4;spacingRight=4;overflow=hidden;points=[[0,0.5],[1,0.5]];portConstraint=eastwest;rotatable=0;whiteSpace=wrap;html=1;labelBackgroundColor=none;fontColor=#E4FDE1;" parent="8eXREgXHeoMpqVfYINqJ-34" vertex="1">
                    <mxGeometry y="60" width="140" height="30" as="geometry"/>
                </mxCell>
                <mxCell id="8eXREgXHeoMpqVfYINqJ-37" value="Description" style="text;strokeColor=none;fillColor=none;align=left;verticalAlign=middle;spacingLeft=4;spacingRight=4;overflow=hidden;points=[[0,0.5],[1,0.5]];portConstraint=eastwest;rotatable=0;whiteSpace=wrap;html=1;labelBackgroundColor=none;fontColor=#E4FDE1;" parent="8eXREgXHeoMpqVfYINqJ-34" vertex="1">
                    <mxGeometry y="90" width="140" height="30" as="geometry"/>
                </mxCell>
                <mxCell id="8eXREgXHeoMpqVfYINqJ-38" value="TypeOffre&amp;nbsp;" style="text;strokeColor=none;fillColor=none;align=left;verticalAlign=middle;spacingLeft=4;spacingRight=4;overflow=hidden;points=[[0,0.5],[1,0.5]];portConstraint=eastwest;rotatable=0;whiteSpace=wrap;html=1;labelBackgroundColor=none;fontColor=#E4FDE1;" parent="8eXREgXHeoMpqVfYINqJ-34" vertex="1">
                    <mxGeometry y="120" width="140" height="30" as="geometry"/>
                </mxCell>
                <mxCell id="8eXREgXHeoMpqVfYINqJ-39" value="EtatOffre&amp;nbsp;" style="text;strokeColor=none;fillColor=none;align=left;verticalAlign=middle;spacingLeft=4;spacingRight=4;overflow=hidden;points=[[0,0.5],[1,0.5]];portConstraint=eastwest;rotatable=0;whiteSpace=wrap;html=1;labelBackgroundColor=none;fontColor=#E4FDE1;" parent="8eXREgXHeoMpqVfYINqJ-34" vertex="1">
                    <mxGeometry y="150" width="140" height="30" as="geometry"/>
                </mxCell>
                <mxCell id="8eXREgXHeoMpqVfYINqJ-40" value="DatePublication" style="text;strokeColor=none;fillColor=none;align=left;verticalAlign=middle;spacingLeft=4;spacingRight=4;overflow=hidden;points=[[0,0.5],[1,0.5]];portConstraint=eastwest;rotatable=0;whiteSpace=wrap;html=1;labelBackgroundColor=none;fontColor=#E4FDE1;" parent="8eXREgXHeoMpqVfYINqJ-34" vertex="1">
                    <mxGeometry y="180" width="140" height="30" as="geometry"/>
                </mxCell>
                <mxCell id="T_vao26rudjLCwdwVRNc-10" value="#ref_entreprise" style="text;strokeColor=none;fillColor=none;align=left;verticalAlign=middle;spacingLeft=4;spacingRight=4;overflow=hidden;points=[[0,0.5],[1,0.5]];portConstraint=eastwest;rotatable=0;whiteSpace=wrap;html=1;labelBackgroundColor=none;fontColor=#E4FDE1;" parent="8eXREgXHeoMpqVfYINqJ-34" vertex="1">
                    <mxGeometry y="210" width="140" height="30" as="geometry"/>
                </mxCell>
                <mxCell id="8eXREgXHeoMpqVfYINqJ-41" value="Evenement" style="swimlane;fontStyle=0;childLayout=stackLayout;horizontal=1;startSize=30;horizontalStack=0;resizeParent=1;resizeParentMax=0;resizeLast=0;collapsible=1;marginBottom=0;whiteSpace=wrap;html=1;fillColor=#F45B69;strokeColor=#028090;labelBackgroundColor=none;fontColor=#E4FDE1;" parent="8eXREgXHeoMpqVfYINqJ-1" vertex="1">
                    <mxGeometry x="-380" y="10" width="140" height="300" as="geometry"/>
                </mxCell>
                <mxCell id="8eXREgXHeoMpqVfYINqJ-42" value="id" style="text;strokeColor=none;fillColor=none;align=left;verticalAlign=middle;spacingLeft=4;spacingRight=4;overflow=hidden;points=[[0,0.5],[1,0.5]];portConstraint=eastwest;rotatable=0;whiteSpace=wrap;html=1;labelBackgroundColor=none;fontColor=#E4FDE1;fontStyle=4" parent="8eXREgXHeoMpqVfYINqJ-41" vertex="1">
                    <mxGeometry y="30" width="140" height="30" as="geometry"/>
                </mxCell>
                <mxCell id="8eXREgXHeoMpqVfYINqJ-43" value="TitreEvenement" style="text;strokeColor=none;fillColor=none;align=left;verticalAlign=middle;spacingLeft=4;spacingRight=4;overflow=hidden;points=[[0,0.5],[1,0.5]];portConstraint=eastwest;rotatable=0;whiteSpace=wrap;html=1;labelBackgroundColor=none;fontColor=#E4FDE1;" parent="8eXREgXHeoMpqVfYINqJ-41" vertex="1">
                    <mxGeometry y="60" width="140" height="30" as="geometry"/>
                </mxCell>
                <mxCell id="8eXREgXHeoMpqVfYINqJ-44" value="Description" style="text;strokeColor=none;fillColor=none;align=left;verticalAlign=middle;spacingLeft=4;spacingRight=4;overflow=hidden;points=[[0,0.5],[1,0.5]];portConstraint=eastwest;rotatable=0;whiteSpace=wrap;html=1;labelBackgroundColor=none;fontColor=#E4FDE1;" parent="8eXREgXHeoMpqVfYINqJ-41" vertex="1">
                    <mxGeometry y="90" width="140" height="30" as="geometry"/>
                </mxCell>
                <mxCell id="8eXREgXHeoMpqVfYINqJ-45" value="Lieu" style="text;strokeColor=none;fillColor=none;align=left;verticalAlign=middle;spacingLeft=4;spacingRight=4;overflow=hidden;points=[[0,0.5],[1,0.5]];portConstraint=eastwest;rotatable=0;whiteSpace=wrap;html=1;labelBackgroundColor=none;fontColor=#E4FDE1;" parent="8eXREgXHeoMpqVfYINqJ-41" vertex="1">
                    <mxGeometry y="120" width="140" height="30" as="geometry"/>
                </mxCell>
                <mxCell id="8eXREgXHeoMpqVfYINqJ-46" value="NombrePlaces" style="text;strokeColor=none;fillColor=none;align=left;verticalAlign=middle;spacingLeft=4;spacingRight=4;overflow=hidden;points=[[0,0.5],[1,0.5]];portConstraint=eastwest;rotatable=0;whiteSpace=wrap;html=1;labelBackgroundColor=none;fontColor=#E4FDE1;" parent="8eXREgXHeoMpqVfYINqJ-41" vertex="1">
                    <mxGeometry y="150" width="140" height="30" as="geometry"/>
                </mxCell>
                <mxCell id="8eXREgXHeoMpqVfYINqJ-47" value="DateEvenement" style="text;strokeColor=none;fillColor=none;align=left;verticalAlign=middle;spacingLeft=4;spacingRight=4;overflow=hidden;points=[[0,0.5],[1,0.5]];portConstraint=eastwest;rotatable=0;whiteSpace=wrap;html=1;labelBackgroundColor=none;fontColor=#E4FDE1;" parent="8eXREgXHeoMpqVfYINqJ-41" vertex="1">
                    <mxGeometry y="180" width="140" height="30" as="geometry"/>
                </mxCell>
                <mxCell id="dQ9HWBghNhe_7UMcfGnW-25" value="TypeEvenement" style="text;strokeColor=none;fillColor=none;align=left;verticalAlign=middle;spacingLeft=4;spacingRight=4;overflow=hidden;points=[[0,0.5],[1,0.5]];portConstraint=eastwest;rotatable=0;whiteSpace=wrap;html=1;labelBackgroundColor=none;fontColor=#E4FDE1;" parent="8eXREgXHeoMpqVfYINqJ-41" vertex="1">
                    <mxGeometry y="210" width="140" height="30" as="geometry"/>
                </mxCell>
                <mxCell id="8eXREgXHeoMpqVfYINqJ-48" value="ref_professeur" style="text;strokeColor=none;fillColor=none;align=left;verticalAlign=middle;spacingLeft=4;spacingRight=4;overflow=hidden;points=[[0,0.5],[1,0.5]];portConstraint=eastwest;rotatable=0;whiteSpace=wrap;html=1;labelBackgroundColor=none;fontColor=#E4FDE1;" parent="8eXREgXHeoMpqVfYINqJ-41" vertex="1">
                    <mxGeometry y="240" width="140" height="30" as="geometry"/>
                </mxCell>
                <mxCell id="dQ9HWBghNhe_7UMcfGnW-27" value="#ref_entreprise" style="text;strokeColor=none;fillColor=none;align=left;verticalAlign=middle;spacingLeft=4;spacingRight=4;overflow=hidden;points=[[0,0.5],[1,0.5]];portConstraint=eastwest;rotatable=0;whiteSpace=wrap;html=1;labelBackgroundColor=none;fontColor=#E4FDE1;" parent="8eXREgXHeoMpqVfYINqJ-41" vertex="1">
                    <mxGeometry y="270" width="140" height="30" as="geometry"/>
                </mxCell>
                <mxCell id="8eXREgXHeoMpqVfYINqJ-49" value="Post" style="swimlane;fontStyle=0;childLayout=stackLayout;horizontal=1;startSize=30;horizontalStack=0;resizeParent=1;resizeParentMax=0;resizeLast=0;collapsible=1;marginBottom=0;whiteSpace=wrap;html=1;fillColor=#F45B69;strokeColor=#028090;labelBackgroundColor=none;fontColor=#E4FDE1;" parent="8eXREgXHeoMpqVfYINqJ-1" vertex="1">
                    <mxGeometry x="480" y="10" width="160" height="210" as="geometry"/>
                </mxCell>
                <mxCell id="8eXREgXHeoMpqVfYINqJ-50" value="&lt;span&gt;id&lt;/span&gt;" style="text;strokeColor=none;fillColor=none;align=left;verticalAlign=middle;spacingLeft=4;spacingRight=4;overflow=hidden;points=[[0,0.5],[1,0.5]];portConstraint=eastwest;rotatable=0;whiteSpace=wrap;html=1;labelBackgroundColor=none;fontColor=#E4FDE1;fontStyle=4" parent="8eXREgXHeoMpqVfYINqJ-49" vertex="1">
                    <mxGeometry y="30" width="160" height="30" as="geometry"/>
                </mxCell>
                <mxCell id="8eXREgXHeoMpqVfYINqJ-51" value="ContenuPost" style="text;strokeColor=none;fillColor=none;align=left;verticalAlign=middle;spacingLeft=4;spacingRight=4;overflow=hidden;points=[[0,0.5],[1,0.5]];portConstraint=eastwest;rotatable=0;whiteSpace=wrap;html=1;labelBackgroundColor=none;fontColor=#E4FDE1;" parent="8eXREgXHeoMpqVfYINqJ-49" vertex="1">
                    <mxGeometry y="60" width="160" height="30" as="geometry"/>
                </mxCell>
                <mxCell id="8eXREgXHeoMpqVfYINqJ-52" value="Titre" style="text;strokeColor=none;fillColor=none;align=left;verticalAlign=middle;spacingLeft=4;spacingRight=4;overflow=hidden;points=[[0,0.5],[1,0.5]];portConstraint=eastwest;rotatable=0;whiteSpace=wrap;html=1;labelBackgroundColor=none;fontColor=#E4FDE1;" parent="8eXREgXHeoMpqVfYINqJ-49" vertex="1">
                    <mxGeometry y="90" width="160" height="30" as="geometry"/>
                </mxCell>
                <mxCell id="8eXREgXHeoMpqVfYINqJ-53" value="date_heure_publication" style="text;strokeColor=none;fillColor=none;align=left;verticalAlign=middle;spacingLeft=4;spacingRight=4;overflow=hidden;points=[[0,0.5],[1,0.5]];portConstraint=eastwest;rotatable=0;whiteSpace=wrap;html=1;labelBackgroundColor=none;fontColor=#E4FDE1;" parent="8eXREgXHeoMpqVfYINqJ-49" vertex="1">
                    <mxGeometry y="120" width="160" height="30" as="geometry"/>
                </mxCell>
                <mxCell id="dQ9HWBghNhe_7UMcfGnW-0" value="canal" style="text;strokeColor=none;fillColor=none;align=left;verticalAlign=middle;spacingLeft=4;spacingRight=4;overflow=hidden;points=[[0,0.5],[1,0.5]];portConstraint=eastwest;rotatable=0;whiteSpace=wrap;html=1;labelBackgroundColor=none;fontColor=#E4FDE1;" parent="8eXREgXHeoMpqVfYINqJ-49" vertex="1">
                    <mxGeometry y="150" width="160" height="30" as="geometry"/>
                </mxCell>
                <mxCell id="8eXREgXHeoMpqVfYINqJ-54" value="#ref_utilisateur" style="text;strokeColor=none;fillColor=none;align=left;verticalAlign=middle;spacingLeft=4;spacingRight=4;overflow=hidden;points=[[0,0.5],[1,0.5]];portConstraint=eastwest;rotatable=0;whiteSpace=wrap;html=1;labelBackgroundColor=none;fontColor=#E4FDE1;" parent="8eXREgXHeoMpqVfYINqJ-49" vertex="1">
                    <mxGeometry y="180" width="160" height="30" as="geometry"/>
                </mxCell>
                <mxCell id="8eXREgXHeoMpqVfYINqJ-56" value="Réponse" style="swimlane;fontStyle=0;childLayout=stackLayout;horizontal=1;startSize=30;horizontalStack=0;resizeParent=1;resizeParentMax=0;resizeLast=0;collapsible=1;marginBottom=0;whiteSpace=wrap;html=1;fillColor=#F45B69;strokeColor=#028090;labelBackgroundColor=none;fontColor=#E4FDE1;" parent="8eXREgXHeoMpqVfYINqJ-1" vertex="1">
                    <mxGeometry x="680" y="10" width="160" height="150" as="geometry"/>
                </mxCell>
                <mxCell id="8eXREgXHeoMpqVfYINqJ-57" value="&lt;span&gt;id&lt;/span&gt;" style="text;strokeColor=none;fillColor=none;align=left;verticalAlign=middle;spacingLeft=4;spacingRight=4;overflow=hidden;points=[[0,0.5],[1,0.5]];portConstraint=eastwest;rotatable=0;whiteSpace=wrap;html=1;labelBackgroundColor=none;fontColor=#E4FDE1;fontStyle=4" parent="8eXREgXHeoMpqVfYINqJ-56" vertex="1">
                    <mxGeometry y="30" width="160" height="30" as="geometry"/>
                </mxCell>
                <mxCell id="8eXREgXHeoMpqVfYINqJ-58" value="Contenu" style="text;strokeColor=none;fillColor=none;align=left;verticalAlign=middle;spacingLeft=4;spacingRight=4;overflow=hidden;points=[[0,0.5],[1,0.5]];portConstraint=eastwest;rotatable=0;whiteSpace=wrap;html=1;labelBackgroundColor=none;fontColor=#E4FDE1;" parent="8eXREgXHeoMpqVfYINqJ-56" vertex="1">
                    <mxGeometry y="60" width="160" height="30" as="geometry"/>
                </mxCell>
                <mxCell id="8eXREgXHeoMpqVfYINqJ-59" value="date_heure_reponse" style="text;strokeColor=none;fillColor=none;align=left;verticalAlign=middle;spacingLeft=4;spacingRight=4;overflow=hidden;points=[[0,0.5],[1,0.5]];portConstraint=eastwest;rotatable=0;whiteSpace=wrap;html=1;labelBackgroundColor=none;fontColor=#E4FDE1;" parent="8eXREgXHeoMpqVfYINqJ-56" vertex="1">
                    <mxGeometry y="90" width="160" height="30" as="geometry"/>
                </mxCell>
                <mxCell id="dQ9HWBghNhe_7UMcfGnW-2" value="#ref_reponse" style="text;strokeColor=none;fillColor=none;align=left;verticalAlign=middle;spacingLeft=4;spacingRight=4;overflow=hidden;points=[[0,0.5],[1,0.5]];portConstraint=eastwest;rotatable=0;whiteSpace=wrap;html=1;labelBackgroundColor=none;fontColor=#E4FDE1;" parent="8eXREgXHeoMpqVfYINqJ-56" vertex="1">
                    <mxGeometry y="120" width="160" height="30" as="geometry"/>
                </mxCell>
                <mxCell id="8eXREgXHeoMpqVfYINqJ-64" value="Alumni" style="swimlane;fontStyle=0;childLayout=stackLayout;horizontal=1;startSize=30;horizontalStack=0;resizeParent=1;resizeParentMax=0;resizeLast=0;collapsible=1;marginBottom=0;whiteSpace=wrap;html=1;fillColor=#F45B69;strokeColor=#028090;labelBackgroundColor=none;fontColor=#E4FDE1;" parent="8eXREgXHeoMpqVfYINqJ-1" vertex="1">
                    <mxGeometry x="160" y="210" width="120" height="150" as="geometry"/>
                </mxCell>
                <mxCell id="8eXREgXHeoMpqVfYINqJ-65" value="id" style="text;strokeColor=none;fillColor=none;align=left;verticalAlign=middle;spacingLeft=4;spacingRight=4;overflow=hidden;points=[[0,0.5],[1,0.5]];portConstraint=eastwest;rotatable=0;whiteSpace=wrap;html=1;labelBackgroundColor=none;fontColor=#E4FDE1;fontStyle=4" parent="8eXREgXHeoMpqVfYINqJ-64" vertex="1">
                    <mxGeometry y="30" width="120" height="30" as="geometry"/>
                </mxCell>
                <mxCell id="8eXREgXHeoMpqVfYINqJ-66" value="entreprise" style="text;strokeColor=none;fillColor=none;align=left;verticalAlign=middle;spacingLeft=4;spacingRight=4;overflow=hidden;points=[[0,0.5],[1,0.5]];portConstraint=eastwest;rotatable=0;whiteSpace=wrap;html=1;labelBackgroundColor=none;fontColor=#E4FDE1;" parent="8eXREgXHeoMpqVfYINqJ-64" vertex="1">
                    <mxGeometry y="60" width="120" height="30" as="geometry"/>
                </mxCell>
                <mxCell id="8eXREgXHeoMpqVfYINqJ-67" value="poste" style="text;strokeColor=none;fillColor=none;align=left;verticalAlign=middle;spacingLeft=4;spacingRight=4;overflow=hidden;points=[[0,0.5],[1,0.5]];portConstraint=eastwest;rotatable=0;whiteSpace=wrap;html=1;labelBackgroundColor=none;fontColor=#E4FDE1;" parent="8eXREgXHeoMpqVfYINqJ-64" vertex="1">
                    <mxGeometry y="90" width="120" height="30" as="geometry"/>
                </mxCell>
                <mxCell id="T_vao26rudjLCwdwVRNc-0" value="#ref_etudiant" style="text;strokeColor=none;fillColor=none;align=left;verticalAlign=middle;spacingLeft=4;spacingRight=4;overflow=hidden;points=[[0,0.5],[1,0.5]];portConstraint=eastwest;rotatable=0;whiteSpace=wrap;html=1;labelBackgroundColor=none;fontColor=#E4FDE1;" parent="8eXREgXHeoMpqVfYINqJ-64" vertex="1">
                    <mxGeometry y="120" width="120" height="30" as="geometry"/>
                </mxCell>
                <mxCell id="dQ9HWBghNhe_7UMcfGnW-1" style="edgeStyle=orthogonalEdgeStyle;rounded=0;orthogonalLoop=1;jettySize=auto;html=1;strokeWidth=3;endArrow=oval;endFill=1;" parent="8eXREgXHeoMpqVfYINqJ-1" source="8eXREgXHeoMpqVfYINqJ-5" target="8eXREgXHeoMpqVfYINqJ-54" edge="1">
                    <mxGeometry relative="1" as="geometry"/>
                </mxCell>
                <mxCell id="dQ9HWBghNhe_7UMcfGnW-3" style="edgeStyle=orthogonalEdgeStyle;rounded=0;orthogonalLoop=1;jettySize=auto;html=1;strokeWidth=3;endArrow=oval;endFill=1;" parent="8eXREgXHeoMpqVfYINqJ-1" source="8eXREgXHeoMpqVfYINqJ-50" target="dQ9HWBghNhe_7UMcfGnW-2" edge="1">
                    <mxGeometry relative="1" as="geometry"/>
                </mxCell>
                <mxCell id="dQ9HWBghNhe_7UMcfGnW-5" style="edgeStyle=orthogonalEdgeStyle;rounded=0;orthogonalLoop=1;jettySize=auto;html=1;entryX=1;entryY=0.5;entryDx=0;entryDy=0;strokeWidth=3;endArrow=oval;endFill=1;" parent="8eXREgXHeoMpqVfYINqJ-1" source="8eXREgXHeoMpqVfYINqJ-5" target="dQ9HWBghNhe_7UMcfGnW-4" edge="1">
                    <mxGeometry relative="1" as="geometry">
                        <Array as="points">
                            <mxPoint x="290" y="60"/>
                            <mxPoint x="290" y="175"/>
                        </Array>
                    </mxGeometry>
                </mxCell>
                <mxCell id="dQ9HWBghNhe_7UMcfGnW-14" style="edgeStyle=orthogonalEdgeStyle;rounded=0;orthogonalLoop=1;jettySize=auto;html=1;strokeWidth=3;strokeColor=#A3A3A3;endArrow=oval;endFill=1;" parent="8eXREgXHeoMpqVfYINqJ-1" source="8eXREgXHeoMpqVfYINqJ-5" target="dQ9HWBghNhe_7UMcfGnW-6" edge="1">
                    <mxGeometry relative="1" as="geometry">
                        <Array as="points">
                            <mxPoint x="290" y="55"/>
                            <mxPoint x="290"/>
                            <mxPoint x="90"/>
                            <mxPoint x="90" y="145"/>
                        </Array>
                    </mxGeometry>
                </mxCell>
                <mxCell id="dQ9HWBghNhe_7UMcfGnW-16" style="edgeStyle=orthogonalEdgeStyle;rounded=0;orthogonalLoop=1;jettySize=auto;html=1;strokeWidth=3;endArrow=oval;endFill=1;" parent="8eXREgXHeoMpqVfYINqJ-1" source="8eXREgXHeoMpqVfYINqJ-5" target="dQ9HWBghNhe_7UMcfGnW-15" edge="1">
                    <mxGeometry relative="1" as="geometry">
                        <Array as="points">
                            <mxPoint x="300" y="50"/>
                            <mxPoint x="300" y="-10"/>
                            <mxPoint x="-70" y="-10"/>
                            <mxPoint x="-70" y="145"/>
                        </Array>
                    </mxGeometry>
                </mxCell>
                <mxCell id="dQ9HWBghNhe_7UMcfGnW-26" style="edgeStyle=orthogonalEdgeStyle;rounded=0;orthogonalLoop=1;jettySize=auto;html=1;strokeWidth=3;endArrow=oval;endFill=1;" parent="8eXREgXHeoMpqVfYINqJ-1" source="8eXREgXHeoMpqVfYINqJ-31" target="8eXREgXHeoMpqVfYINqJ-48" edge="1">
                    <mxGeometry relative="1" as="geometry"/>
                </mxCell>
                <mxCell id="dQ9HWBghNhe_7UMcfGnW-28" style="edgeStyle=orthogonalEdgeStyle;rounded=0;orthogonalLoop=1;jettySize=auto;html=1;strokeWidth=3;endArrow=oval;endFill=1;" parent="8eXREgXHeoMpqVfYINqJ-1" source="8eXREgXHeoMpqVfYINqJ-25" target="dQ9HWBghNhe_7UMcfGnW-27" edge="1">
                    <mxGeometry relative="1" as="geometry">
                        <Array as="points">
                            <mxPoint x="-60" y="50"/>
                            <mxPoint x="-60" y="180"/>
                            <mxPoint x="-200" y="180"/>
                            <mxPoint x="-200" y="295"/>
                        </Array>
                    </mxGeometry>
                </mxCell>
                <mxCell id="T_vao26rudjLCwdwVRNc-1" style="edgeStyle=orthogonalEdgeStyle;rounded=0;orthogonalLoop=1;jettySize=auto;html=1;strokeWidth=3;strokeColor=#A3A3A3;endArrow=oval;endFill=1;" parent="8eXREgXHeoMpqVfYINqJ-1" source="8eXREgXHeoMpqVfYINqJ-14" target="T_vao26rudjLCwdwVRNc-0" edge="1">
                    <mxGeometry relative="1" as="geometry">
                        <Array as="points">
                            <mxPoint x="150" y="55"/>
                            <mxPoint x="150" y="345"/>
                        </Array>
                    </mxGeometry>
                </mxCell>
                <mxCell id="T_vao26rudjLCwdwVRNc-2" value="LinkEtudiantEvenement" style="swimlane;fontStyle=0;childLayout=stackLayout;horizontal=1;startSize=30;horizontalStack=0;resizeParent=1;resizeParentMax=0;resizeLast=0;collapsible=1;marginBottom=0;whiteSpace=wrap;html=1;fillColor=#F45B69;strokeColor=#028090;labelBackgroundColor=none;fontColor=#E4FDE1;" parent="8eXREgXHeoMpqVfYINqJ-1" vertex="1">
                    <mxGeometry x="-400" y="330" width="160" height="90" as="geometry"/>
                </mxCell>
                <mxCell id="T_vao26rudjLCwdwVRNc-7" value="#ref_etudiant" style="text;strokeColor=none;fillColor=none;align=left;verticalAlign=middle;spacingLeft=4;spacingRight=4;overflow=hidden;points=[[0,0.5],[1,0.5]];portConstraint=eastwest;rotatable=0;whiteSpace=wrap;html=1;labelBackgroundColor=none;fontColor=#E4FDE1;fontStyle=4" parent="T_vao26rudjLCwdwVRNc-2" vertex="1">
                    <mxGeometry y="30" width="160" height="30" as="geometry"/>
                </mxCell>
                <mxCell id="T_vao26rudjLCwdwVRNc-6" value="#ref_evenement" style="text;strokeColor=none;fillColor=none;align=left;verticalAlign=middle;spacingLeft=4;spacingRight=4;overflow=hidden;points=[[0,0.5],[1,0.5]];portConstraint=eastwest;rotatable=0;whiteSpace=wrap;html=1;labelBackgroundColor=none;fontColor=#E4FDE1;fontStyle=4" parent="T_vao26rudjLCwdwVRNc-2" vertex="1">
                    <mxGeometry y="60" width="160" height="30" as="geometry"/>
                </mxCell>
                <mxCell id="T_vao26rudjLCwdwVRNc-8" style="edgeStyle=orthogonalEdgeStyle;rounded=0;orthogonalLoop=1;jettySize=auto;html=1;entryX=0;entryY=0.5;entryDx=0;entryDy=0;strokeWidth=3;endArrow=oval;endFill=1;" parent="8eXREgXHeoMpqVfYINqJ-1" source="8eXREgXHeoMpqVfYINqJ-42" target="T_vao26rudjLCwdwVRNc-6" edge="1">
                    <mxGeometry relative="1" as="geometry"/>
                </mxCell>
                <mxCell id="T_vao26rudjLCwdwVRNc-9" style="edgeStyle=orthogonalEdgeStyle;rounded=0;orthogonalLoop=1;jettySize=auto;html=1;strokeColor=#A3A3A3;strokeWidth=3;endArrow=oval;endFill=1;" parent="8eXREgXHeoMpqVfYINqJ-1" source="8eXREgXHeoMpqVfYINqJ-14" target="T_vao26rudjLCwdwVRNc-7" edge="1">
                    <mxGeometry relative="1" as="geometry">
                        <Array as="points">
                            <mxPoint x="110" y="50"/>
                            <mxPoint x="110" y="200"/>
                            <mxPoint x="-180" y="200"/>
                            <mxPoint x="-180" y="375"/>
                        </Array>
                    </mxGeometry>
                </mxCell>
                <mxCell id="T_vao26rudjLCwdwVRNc-12" style="edgeStyle=orthogonalEdgeStyle;rounded=0;orthogonalLoop=1;jettySize=auto;html=1;strokeWidth=3;endArrow=oval;endFill=1;" parent="8eXREgXHeoMpqVfYINqJ-1" source="8eXREgXHeoMpqVfYINqJ-25" target="T_vao26rudjLCwdwVRNc-10" edge="1">
                    <mxGeometry relative="1" as="geometry">
                        <Array as="points">
                            <mxPoint x="-50" y="55"/>
                            <mxPoint x="-50" y="220"/>
                            <mxPoint x="-160" y="220"/>
                            <mxPoint x="-160" y="390"/>
                            <mxPoint x="-220" y="390"/>
                            <mxPoint x="-220" y="660"/>
                        </Array>
                    </mxGeometry>
                </mxCell>
                <mxCell id="T_vao26rudjLCwdwVRNc-13" value="LinkEtudiantOffre" style="swimlane;fontStyle=0;childLayout=stackLayout;horizontal=1;startSize=30;horizontalStack=0;resizeParent=1;resizeParentMax=0;resizeLast=0;collapsible=1;marginBottom=0;whiteSpace=wrap;html=1;fillColor=#F45B69;strokeColor=#028090;labelBackgroundColor=none;fontColor=#E4FDE1;" parent="8eXREgXHeoMpqVfYINqJ-1" vertex="1">
                    <mxGeometry x="-200" y="440" width="120" height="150" as="geometry"/>
                </mxCell>
                <mxCell id="T_vao26rudjLCwdwVRNc-14" value="date" style="text;strokeColor=none;fillColor=none;align=left;verticalAlign=middle;spacingLeft=4;spacingRight=4;overflow=hidden;points=[[0,0.5],[1,0.5]];portConstraint=eastwest;rotatable=0;whiteSpace=wrap;html=1;labelBackgroundColor=none;fontColor=#E4FDE1;" parent="T_vao26rudjLCwdwVRNc-13" vertex="1">
                    <mxGeometry y="30" width="120" height="30" as="geometry"/>
                </mxCell>
                <mxCell id="T_vao26rudjLCwdwVRNc-15" value="status" style="text;strokeColor=none;fillColor=none;align=left;verticalAlign=middle;spacingLeft=4;spacingRight=4;overflow=hidden;points=[[0,0.5],[1,0.5]];portConstraint=eastwest;rotatable=0;whiteSpace=wrap;html=1;labelBackgroundColor=none;fontColor=#E4FDE1;" parent="T_vao26rudjLCwdwVRNc-13" vertex="1">
                    <mxGeometry y="60" width="120" height="30" as="geometry"/>
                </mxCell>
                <mxCell id="T_vao26rudjLCwdwVRNc-18" value="#ref_offre" style="text;strokeColor=none;fillColor=none;align=left;verticalAlign=middle;spacingLeft=4;spacingRight=4;overflow=hidden;points=[[0,0.5],[1,0.5]];portConstraint=eastwest;rotatable=0;whiteSpace=wrap;html=1;labelBackgroundColor=none;fontColor=#E4FDE1;fontStyle=4" parent="T_vao26rudjLCwdwVRNc-13" vertex="1">
                    <mxGeometry y="90" width="120" height="30" as="geometry"/>
                </mxCell>
                <mxCell id="T_vao26rudjLCwdwVRNc-17" value="#ref_etudiant" style="text;strokeColor=none;fillColor=none;align=left;verticalAlign=middle;spacingLeft=4;spacingRight=4;overflow=hidden;points=[[0,0.5],[1,0.5]];portConstraint=eastwest;rotatable=0;whiteSpace=wrap;html=1;labelBackgroundColor=none;fontColor=#E4FDE1;fontStyle=4" parent="T_vao26rudjLCwdwVRNc-13" vertex="1">
                    <mxGeometry y="120" width="120" height="30" as="geometry"/>
                </mxCell>
                <mxCell id="T_vao26rudjLCwdwVRNc-20" style="edgeStyle=orthogonalEdgeStyle;rounded=0;orthogonalLoop=1;jettySize=auto;html=1;strokeWidth=3;endArrow=oval;endFill=1;" parent="8eXREgXHeoMpqVfYINqJ-1" source="8eXREgXHeoMpqVfYINqJ-14" target="T_vao26rudjLCwdwVRNc-17" edge="1">
                    <mxGeometry relative="1" as="geometry">
                        <Array as="points">
                            <mxPoint x="130" y="55"/>
                            <mxPoint x="130" y="220"/>
                            <mxPoint x="-30" y="220"/>
                            <mxPoint x="-30" y="575"/>
                        </Array>
                    </mxGeometry>
                </mxCell>
            </root>
        </mxGraphModel>
    </diagram>
</mxfile>